<svg xmlns="http://www.w3.org/2000/svg" viewBox="0 0 24 24" style="box-sizing:border-box;fill:rgb(37, 35, 44);height:23.9931px;width: 24px;">
                                                    <path d="M10.37 6.54a3.67 3.67 0 0 0-5.27 0 3.9 3.9 0 0 0 0 5.43l6.19 6.3a1 1 0 0 0 1.42 0l6.19-6.3a3.9 3.9 0 0 0 0-5.43 3.67 3.67 0 0 0-5.27 0l-.92.93a1 1 0 0 1-1.42 0zm1.43-1.4.2.2.2-.2a5.67 5.67 0 0 1 8.13 0 5.9 5.9 0 0 1 0 8.23l-6.19 6.3a3 3 0 0 1-4.28 0l-6.19-6.3a5.9 5.9 0 0 1 0-8.23 5.67 5.67 0 0 1 8.13 0" style="box-sizing:border-box;fill:rgb(37, 35, 44);height:24px;width: 24px;"></path>
                                                </svg>