<svg xmlns="http://www.w3.org/2000/svg" viewBox="0 0 24 24" style="box-sizing:border-box;fill:rgb(37, 35, 44);height:23.9931px;width: 24px;">
                                                    <path fill-rule="evenodd" d="M17 7A5 5 0 1 1 7 7a5 5 0 0 1 10 0m-2 0a3 3 0 1 1-6 0 3 3 0 0 1 6 0" clip-rule="evenodd" style="box-sizing:border-box;fill:rgb(37, 35, 44);height:24px;width: 24px;"></path>
                                                    <path d="M5 20a4 4 0 0 1 4-4h6a4 4 0 0 1 4 4v1a1 1 0 1 0 2 0v-1a6 6 0 0 0-6-6H9a6 6 0 0 0-6 6v1a1 1 0 1 0 2 0z" style="box-sizing:border-box;fill:rgb(37, 35, 44);height:24px;width: 24px;"></path>
                                                </svg>

                                                