<svg xmlns="http://www.w3.org/2000/svg" viewBox="0 0 24 24" style="box-sizing:border-box;fill:rgb(37, 35, 44);height:23.9931px;width: 24px;">
                                                    <path d="M4 12a8 8 0 0 1 8-8 7.9 7.9 0 0 1 6.18 3l-1.68-.01a1 1 0 1 0 0 2h3.56l.44.01a1 1 0 0 0 1-1V4a1 1 0 1 0-2 0v1.45A9.8 9.8 0 0 0 12 2 10 10 0 0 0 2 12a1 1 0 1 0 2 0m16 0a8 8 0 0 1-8 8 7.9 7.9 0 0 1-6.18-3l1.68.01a1 1 0 0 0 0-2H3.94L3.5 15a1 1 0 0 0-1 1v4a1 1 0 1 0 2 0v-1.45A9.8 9.8 0 0 0 12 22a10 10 0 0 0 10-10 1 1 0 1 0-2 0" style="box-sizing:border-box;fill:rgb(37, 35, 44);height:24px;width: 24px;"></path>
                                                </svg>