<svg version="1.1" id="Layer_1" xmlns="http://www.w3.org/2000/svg" xmlns:xlink="http://www.w3.org/1999/xlink" x="0px" y="0px"
	 width="100%" viewBox="0 0 240 256" enable-background="new 0 0 240 256" xml:space="preserve">
<path fill="#000000" opacity="1.000000" stroke="none" 
	d="
M141.427521,172.675064 
	C149.600510,185.395462 146.765839,198.488998 134.317001,206.027969 
	C132.175034,207.325150 131.214478,208.699753 131.285339,211.160492 
	C131.395477,214.986069 131.455322,218.832870 131.175400,222.644150 
	C130.913681,226.207413 129.090210,228.634109 125.092384,228.424225 
	C121.413269,228.231079 119.838745,225.981644 119.692368,222.514587 
	C119.636200,221.184326 119.540855,219.838638 119.670921,218.520477 
	C120.333771,211.803284 119.255653,207.048538 112.237389,202.888672 
	C100.076241,195.680496 101.566963,176.495453 114.329727,168.467941 
	C118.126717,166.079712 118.876099,163.509842 118.863266,159.576355 
	C118.761162,128.268127 118.800331,96.959396 118.811279,65.650826 
	C118.811974,63.655739 118.740288,61.629135 119.051254,59.672661 
	C119.581894,56.334057 121.511917,54.077072 125.094765,54.276489 
	C128.633835,54.473476 130.433441,56.675236 130.443527,60.243286 
	C130.473160,70.732681 130.384415,81.223671 130.536179,91.711220 
	C130.868607,114.682983 131.135849,137.654465 130.372833,160.620285 
	C130.253159,164.222351 130.955917,166.661575 134.814850,167.753143 
	C137.381393,168.479126 139.520447,170.213623 141.427521,172.675064 
M133.264313,181.324783 
	C131.382690,178.293472 128.329910,179.023682 125.608398,179.113739 
	C119.990173,179.299606 116.758957,183.573639 117.334190,189.759354 
	C117.797279,194.739105 120.984009,196.573975 127.749977,195.756607 
	C132.605698,195.170013 134.907959,191.583130 134.028610,186.024933 
	C133.821442,184.715500 133.710327,183.390884 133.264313,181.324783 
z"/>
<path fill="#000000" opacity="1.000000" stroke="none" 
	d="
M56.624851,186.999878 
	C56.623360,165.675430 56.600807,144.850937 56.645313,124.026604 
	C56.651649,121.060371 56.473637,118.671104 53.122421,117.181343 
	C35.472946,109.335411 38.587788,87.553986 51.953659,79.804527 
	C55.048660,78.010071 56.127831,76.023949 55.970562,72.688324 
	C55.798233,69.033310 55.832413,65.351654 56.060574,61.699356 
	C56.295551,57.937954 57.486496,54.661709 62.155537,54.743351 
	C66.533203,54.819897 67.690987,57.967648 67.913651,61.517559 
	C68.163574,65.502205 68.118263,69.510422 68.070282,73.506805 
	C68.041183,75.930450 68.800117,77.554543 71.212456,78.530197 
	C79.524803,81.892097 82.898064,88.865593 83.141930,97.125801 
	C83.382416,105.271751 79.821365,112.173424 72.546638,116.248634 
	C69.060768,118.201378 68.160568,120.476654 68.173965,124.171158 
	C68.287483,155.490692 68.241371,186.810822 68.235031,218.130768 
	C68.234695,219.795303 68.327744,221.484299 68.087471,223.119324 
	C67.574837,226.607864 65.793663,229.285141 61.958862,229.047501 
	C58.176399,228.813080 56.627468,226.176483 56.634888,222.484589 
	C56.658329,210.823074 56.632187,199.161453 56.624851,186.999878 
M68.937714,104.479721 
	C72.365860,100.062981 70.679771,95.178291 68.714485,91.335899 
	C66.796562,87.586082 62.117195,89.144554 58.651703,89.896248 
	C54.820602,90.727234 52.700722,95.289131 53.357796,100.454590 
	C53.904518,104.752533 56.505913,106.859734 60.802223,106.949982 
	C63.507000,107.006798 66.148529,106.832489 68.937714,104.479721 
z"/>
<path fill="#000000" opacity="1.000000" stroke="none" 
	d="
M207.996948,86.260910 
	C214.016953,99.368057 210.722916,110.314819 198.666504,117.156219 
	C196.099319,118.612976 195.859253,120.341545 195.864182,122.835045 
	C195.927048,154.661972 195.908127,186.489075 195.904053,218.316132 
	C195.903900,219.481598 195.931839,220.657639 195.794052,221.810532 
	C195.382080,225.258072 193.586853,227.394836 189.925720,227.271561 
	C186.204163,227.146240 184.675262,224.874161 184.673431,221.347183 
	C184.667816,210.515961 184.658234,199.684723 184.657104,188.853500 
	C184.654846,167.024338 184.636978,145.195129 184.682617,123.366074 
	C184.688477,120.563072 184.556396,118.365028 181.278122,117.053246 
	C173.587021,113.975670 169.260696,107.813072 169.048782,99.712982 
	C168.832779,91.456696 172.213333,84.206001 179.639160,80.010788 
	C183.235855,77.978836 184.025116,75.604095 183.863327,72.009666 
	C183.698730,68.353058 183.709366,64.668221 183.968109,61.018780 
	C184.212006,57.578911 185.666428,54.831833 189.692429,54.737484 
	C193.690109,54.643799 195.386978,57.092522 195.599564,60.698540 
	C195.834549,64.684761 195.943100,68.687881 195.872986,72.679543 
	C195.820389,75.673218 196.641983,77.706177 199.716049,78.817139 
	C203.259995,80.097908 205.963272,82.586746 207.996948,86.260910 
M182.271851,93.985001 
	C181.036453,97.514053 179.830017,101.420807 183.177124,104.098656 
	C186.565323,106.809372 190.724335,106.247284 194.440201,104.133759 
	C198.306229,101.934830 197.961777,98.092957 197.892410,94.418739 
	C197.852234,92.290459 197.259521,90.485893 195.061462,89.623802 
	C191.144562,88.087570 185.608841,89.714584 182.271851,93.985001 
z"/>
</svg>